<?xml version="1.0" standalone="no"?><svg xmlns="http://www.w3.org/2000/svg" viewBox="0 0 1440 320"><path fill="#0093E9" fill-opacity="1" d="M0,96L21.8,112C43.6,128,87,160,131,186.7C174.5,213,218,235,262,218.7C305.5,203,349,149,393,138.7C436.4,128,480,160,524,186.7C567.3,213,611,235,655,213.3C698.2,192,742,128,785,133.3C829.1,139,873,213,916,208C960,203,1004,117,1047,112C1090.9,107,1135,181,1178,208C1221.8,235,1265,213,1309,186.7C1352.7,160,1396,128,1418,112L1440,96L1440,320L1418.2,320C1396.4,320,1353,320,1309,320C1265.5,320,1222,320,1178,320C1134.5,320,1091,320,1047,320C1003.6,320,960,320,916,320C872.7,320,829,320,785,320C741.8,320,698,320,655,320C610.9,320,567,320,524,320C480,320,436,320,393,320C349.1,320,305,320,262,320C218.2,320,175,320,131,320C87.3,320,44,320,22,320L0,320Z"></path></svg>